# xmcd CD database file
#
# Track frame offsets:
#	150
#	7112
#	21295
#	39960
#	61005
#	81072
#	97725
#	118795
#	140652
#	161065
#	181052
#	199704
#
# Disc length: 2915 seconds
#
# Revision: 1
# Processed by: cddbd v1.4PL0 Copyright (c) Steve Scherf et al.
# Submitted via: CDex 1.40Release
#
DISCID=910b610c
DTITLE=Shania Twain - The Woman In Me
DYEAR=1900
DGENRE=Country
TTITLE0=The Woman In Me - 12 - God Bless The Child
TTITLE1=The Woman In Me - 11 - No One Needs To Know
TTITLE2=The Woman In Me - 10 - Leaving Is The Only Way Out
TTITLE3=The Woman In Me - 09 - Raining On Our Love
TTITLE4=The Woman In Me - 08 - You Win My Love
TTITLE5=The Woman In Me - 07 - If It Don't Take Two
TTITLE6=The Woman In Me - 06 - Is There Life After Love
TTITLE7=The Woman In Me - 05 - The Woman In Me (Needs The Man In You)
TTITLE8=The Woman In Me - 04 - (If You're Not In It For Love) I'm Outta Here!
TTITLE9=The Woman In Me - 03 - Whose Bed Have Your Boots Been Under
TTITLE10=The Woman In Me - 02 - Any Man Of Mine
TTITLE11=The Woman In Me - 01 - Home Ain't Where His Heart Is (Anymore)
EXTD=ID3G: 2
EXTT0=
EXTT1=
EXTT2=
EXTT3=
EXTT4=
EXTT5=
EXTT6=
EXTT7=
EXTT8=
EXTT9=
EXTT10=
EXTT11=
PLAYORDER=
